<svg width="16" height="16" viewBox="0 0 16 16" fill="none" xmlns="http://www.w3.org/2000/svg">
<path d="M4.38834 4.82508C6.39305 5.1785 7.58787 5.91779 8 6.34222C8.41213 5.91779 9.60695 5.1785 11.6117 4.82508C12.6273 4.64603 13.1351 4.55651 13.5675 4.89964C14 5.24277 14 5.79996 14 6.91435V10.9193C14 11.9382 14 12.4477 13.7224 12.7658C13.4449 13.0838 12.8338 13.1916 11.6117 13.407C10.5222 13.5991 9.67193 13.9051 9.05649 14.2127C8.45097 14.5152 8.1482 14.6665 8 14.6665C7.8518 14.6665 7.54903 14.5152 6.94351 14.2127C6.32807 13.9051 5.4778 13.5991 4.38834 13.407C3.16619 13.1916 2.55512 13.0838 2.27756 12.7658C2 12.4477 2 11.9382 2 10.9193V6.91435C2 5.79996 2 5.24277 2.43247 4.89964C2.86494 4.55651 3.37274 4.64603 4.38834 4.82508Z" stroke="#D4D4D4" stroke-linecap="round" stroke-linejoin="round"/>
<path d="M8 6L8 14.6667" stroke="#D4D4D4" stroke-linejoin="round"/>
<path d="M5.66602 2.03921C6.34026 1.59214 7.13864 1.3335 7.99442 1.3335C8.85438 1.3335 9.65637 1.59467 10.3327 2.04577M9.0808 3.66683C8.76074 3.47366 8.38983 3.36322 7.99442 3.36322C7.60322 3.36322 7.236 3.47132 6.91828 3.66068" stroke="#D4D4D4" stroke-linecap="round"/>
</svg>
