<svg width="48" height="48" viewBox="0 0 48 48" fill="none" xmlns="http://www.w3.org/2000/svg">
<path d="M40 44.0003H13C10.2386 44.0003 8 41.7617 8 39.0003M8 39.0003V21.3675C8 15.3983 8 12.4136 9.51324 10.3171C10.0143 9.62288 10.6237 9.01357 11.3179 8.51247C13.4144 6.99922 16.399 6.99922 22.3683 6.99922C24.321 6.99922 26.6992 7.10212 28.6715 7.1288C30.47 7.15313 31.3693 7.16529 33.0443 6.86928C34.7194 6.57327 34.8984 6.5052 35.2564 6.36908C36.7964 5.78352 38.2544 4.87282 40 4V23.0003C40 26.7278 40 28.5916 39.391 30.0617C38.5791 32.022 37.0217 33.5793 35.0615 34.3913C33.5913 35.0003 31.7275 35.0003 28 35.0003H12C9.79086 35.0003 8 36.7911 8 39.0003Z" stroke="#262626" stroke-width="1.6" stroke-linecap="round" stroke-linejoin="round"/>
<path d="M36 34L36 44" stroke="#262626" stroke-width="1.6" stroke-linejoin="round"/>
<path d="M16 8L16 16" stroke="#262626" stroke-width="1.6" stroke-linecap="round" stroke-linejoin="round"/>
</svg>
