<svg width="28" height="29" viewBox="0 0 28 29" fill="none" xmlns="http://www.w3.org/2000/svg">
<path d="M7.67959 8.72196C11.1878 9.34046 13.2788 10.6342 14 11.377C14.7212 10.6342 16.8122 9.34046 20.3204 8.72196C22.0977 8.40864 22.9864 8.25197 23.7432 8.85244C24.5 9.45292 24.5 10.428 24.5 12.3782V19.3868C24.5 21.1699 24.5 22.0615 24.0143 22.6182C23.5285 23.1748 22.4592 23.3633 20.3204 23.7404C18.4139 24.0765 16.9259 24.6121 15.8489 25.1502C14.7892 25.6797 14.2593 25.9445 14 25.9445C13.7407 25.9445 13.2108 25.6797 12.1511 25.1502C11.0741 24.6121 9.58615 24.0765 7.67959 23.7404C5.54083 23.3633 4.47146 23.1748 3.98573 22.6182C3.5 22.0615 3.5 21.1699 3.5 19.3868V12.3782C3.5 10.428 3.5 9.45292 4.25682 8.85244C5.01364 8.25197 5.90229 8.40864 7.67959 8.72196Z" stroke="url(#paint0_linear_1325_2514)" stroke-width="1.75" stroke-linecap="round" stroke-linejoin="round"/>
<path d="M14 10.7784L14 25.9451" stroke="url(#paint1_linear_1325_2514)" stroke-width="1.75" stroke-linejoin="round"/>
<path d="M9.91602 3.84633C11.0959 3.06396 12.4931 2.61133 13.9907 2.61133C15.4956 2.61133 16.8991 3.06839 18.0827 3.85781M15.8919 6.69466C15.3318 6.35662 14.6827 6.16335 13.9907 6.16335C13.3061 6.16335 12.6635 6.35252 12.1075 6.6839" stroke="white" stroke-width="1.75" stroke-linecap="round"/>
<defs>
<linearGradient id="paint0_linear_1325_2514" x1="14" y1="8.44446" x2="14" y2="25.9445" gradientUnits="userSpaceOnUse">
<stop stop-color="#FF6CB1"/>
<stop offset="1" stop-color="#FF0078"/>
</linearGradient>
<linearGradient id="paint1_linear_1325_2514" x1="14.5" y1="10.7784" x2="14.5" y2="25.9451" gradientUnits="userSpaceOnUse">
<stop stop-color="#FF6CB1"/>
<stop offset="1" stop-color="#FF0078"/>
</linearGradient>
</defs>
</svg>
