<svg width="16" height="17" viewBox="0 0 16 17" fill="none" xmlns="http://www.w3.org/2000/svg">
<g clip-path="url(#clip0_583_4497)">
<path d="M12.002 2.30371V3.63704M4.00195 2.30371V3.63704" stroke="#A3A3A3" stroke-linecap="round" stroke-linejoin="round"/>
<path d="M7.99766 9.63721H8.00364M7.99766 12.3039H8.00364M10.6613 9.63721H10.6673M5.33398 9.63721H5.33997M5.33398 12.3039H5.33997" stroke="#A3A3A3" stroke-width="1.33333" stroke-linecap="round" stroke-linejoin="round"/>
<path d="M2.33398 6.30371H13.6673" stroke="#A3A3A3" stroke-linecap="round" stroke-linejoin="round"/>
<path d="M1.66797 9.13238C1.66797 6.22751 1.66797 4.77507 2.50271 3.87264C3.33746 2.97021 4.68096 2.97021 7.36797 2.97021H8.63464C11.3216 2.97021 12.6651 2.97021 13.4999 3.87264C14.3346 4.77507 14.3346 6.22751 14.3346 9.13238V9.47472C14.3346 12.3796 14.3346 13.832 13.4999 14.7345C12.6651 15.6369 11.3216 15.6369 8.63464 15.6369H7.36797C4.68096 15.6369 3.33746 15.6369 2.50271 14.7345C1.66797 13.832 1.66797 12.3796 1.66797 9.47472V9.13238Z" stroke="#A3A3A3" stroke-linecap="round" stroke-linejoin="round"/>
<path d="M2.00195 6.30371H14.002" stroke="#A3A3A3" stroke-linecap="round" stroke-linejoin="round"/>
</g>
<defs>
<clipPath id="clip0_583_4497">
<rect width="16" height="16" fill="white" transform="translate(0 0.970703)"/>
</clipPath>
</defs>
</svg>
