<svg width="72" height="73" viewBox="0 0 72 73" fill="none" xmlns="http://www.w3.org/2000/svg">
<path d="M0 36.9121C0 17.0299 16.1177 0.912109 36 0.912109V0.912109C55.8823 0.912109 72 17.0299 72 36.9121V36.9121C72 56.7944 55.8823 72.9121 36 72.9121V72.9121C16.1177 72.9121 0 56.7944 0 36.9121V36.9121Z" fill="url(#paint0_linear_589_3583)"/>
<path d="M36 62.4121C21.9167 62.4121 10.5 50.9954 10.5 36.9121C10.5 22.8288 21.9167 11.4121 36 11.4121C50.0833 11.4121 61.5 22.8288 61.5 36.9121C61.5 50.9954 50.0833 62.4121 36 62.4121Z" fill="url(#paint1_linear_589_3583)"/>
<path d="M36 62.4121C21.9167 62.4121 10.5 50.9954 10.5 36.9121C10.5 22.8288 21.9167 11.4121 36 11.4121C50.0833 11.4121 61.5 22.8288 61.5 36.9121C61.5 50.9954 50.0833 62.4121 36 62.4121Z" stroke="url(#paint2_linear_589_3583)"/>
<g opacity="0.3">
<path d="M29.7822 29.094C30.4301 28.5953 30.754 28.3459 31.1279 28.1853C31.2974 28.1125 31.4737 28.0537 31.6546 28.0095C32.0536 27.9121 32.4767 27.9121 33.3229 27.9121H38.6771C39.5233 27.9121 39.9464 27.9121 40.3454 28.0095C40.5263 28.0537 40.7026 28.1125 40.8721 28.1853C41.246 28.3459 41.5699 28.5953 42.2178 29.094C44.3644 30.7466 45.4378 31.5729 45.8057 32.6429C45.9694 33.1188 46.0305 33.6194 45.9858 34.1167C45.8852 35.2348 45.0379 36.2581 43.3433 38.3046L39.3498 43.1274C37.8126 44.9839 37.044 45.9121 36 45.9121C34.956 45.9121 34.1874 44.9839 32.6502 43.1274L28.6567 38.3046C26.9621 36.2581 26.1148 35.2348 26.0142 34.1167C25.9695 33.6194 26.0306 33.1188 26.1943 32.6429C26.5622 31.5729 27.6356 30.7466 29.7822 29.094Z" stroke="#FF0078" stroke-width="1.5"/>
<path d="M34 33.4121H38" stroke="#FF0078" stroke-width="1.5" stroke-linecap="round" stroke-linejoin="round"/>
</g>
<defs>
<linearGradient id="paint0_linear_589_3583" x1="36" y1="0.912109" x2="36" y2="72.9121" gradientUnits="userSpaceOnUse">
<stop stop-color="#FF0078" stop-opacity="0.1"/>
<stop offset="1" stop-color="#060606" stop-opacity="0"/>
</linearGradient>
<linearGradient id="paint1_linear_589_3583" x1="36" y1="10.9121" x2="36" y2="62.9121" gradientUnits="userSpaceOnUse">
<stop stop-color="#FF0078" stop-opacity="0.1"/>
<stop offset="1" stop-color="#060606" stop-opacity="0"/>
</linearGradient>
<linearGradient id="paint2_linear_589_3583" x1="36" y1="10.9121" x2="36" y2="62.9121" gradientUnits="userSpaceOnUse">
<stop stop-color="#FF0078" stop-opacity="0.1"/>
<stop offset="1" stop-color="#060606" stop-opacity="0"/>
</linearGradient>
</defs>
</svg>
