<svg width="28" height="29" viewBox="0 0 28 29" fill="none" xmlns="http://www.w3.org/2000/svg">
<path d="M14.0007 25.947L11.6673 18.947H2.33398L4.66732 25.947H14.0007ZM14.0007 25.947H18.6673" stroke="url(#paint0_linear_1325_2531)" stroke-width="1.75" stroke-linecap="round" stroke-linejoin="round"/>
<path d="M14.0013 15.447V14.8637C14.0013 12.6638 14.0013 11.5639 13.3179 10.8804C12.6345 10.197 11.5345 10.197 9.33464 10.197C7.13475 10.197 6.0348 10.197 5.35139 10.8804C4.66797 11.5639 4.66797 12.6638 4.66797 14.8637V15.447" stroke="white" stroke-width="1.75" stroke-linecap="round" stroke-linejoin="round"/>
<path d="M22.1667 15.447C22.1667 16.7356 21.122 17.7803 19.8333 17.7803C18.5447 17.7803 17.5 16.7356 17.5 15.447C17.5 14.1583 18.5447 13.1136 19.8333 13.1136C21.122 13.1136 22.1667 14.1583 22.1667 15.447Z" stroke="white" stroke-width="1.75"/>
<path d="M11.6667 4.94698C11.6667 6.23565 10.622 7.28031 9.33333 7.28031C8.04467 7.28031 7 6.23565 7 4.94698C7 3.65832 8.04467 2.61365 9.33333 2.61365C10.622 2.61365 11.6667 3.65832 11.6667 4.94698Z" stroke="white" stroke-width="1.75"/>
<path d="M16.334 20.697H23.334C24.6226 20.697 25.6673 21.7417 25.6673 23.0304V23.6137C25.6673 24.9024 24.6226 25.947 23.334 25.947H22.1673" stroke="white" stroke-width="1.75" stroke-linecap="round"/>
<defs>
<linearGradient id="paint0_linear_1325_2531" x1="10.5007" y1="18.947" x2="10.5007" y2="25.947" gradientUnits="userSpaceOnUse">
<stop stop-color="#FF6CB1"/>
<stop offset="1" stop-color="#FF0078"/>
</linearGradient>
</defs>
</svg>
