<svg width="28" height="29" viewBox="0 0 28 29" fill="none" xmlns="http://www.w3.org/2000/svg">
<path d="M9.95374 16.2085L12.248 18.2144V7.86428C12.248 6.89736 13.0319 6.11353 13.9988 6.11353C14.9651 6.11353 15.7487 6.89645 15.7496 7.86277L15.7533 13.4204L18.8291 13.9189C20.8144 14.2209 21.8071 14.3719 22.5064 14.7967C23.6613 15.4983 24.498 16.6135 24.498 18.0902C24.498 19.1616 24.2369 19.8804 23.6021 21.8117C23.1992 23.0371 22.9978 23.6499 22.6694 24.1349C22.1286 24.9334 21.3309 25.5164 20.4128 25.7841C19.8552 25.9467 19.2183 25.9467 17.9444 25.9467H16.8646C15.1711 25.9467 14.3243 25.9467 13.5704 25.6316C13.4353 25.5751 13.3031 25.5113 13.1746 25.4406C12.4581 25.046 11.9241 24.3796 10.8562 23.0468L7.39891 18.7319C6.86763 18.0689 6.86409 17.1199 7.39039 16.4528C8.02298 15.651 9.1849 15.5402 9.95374 16.2085Z" stroke="url(#paint0_linear_1325_2526)" stroke-width="1.75" stroke-linecap="round" stroke-linejoin="round"/>
<path d="M8.16471 9.61365H7.20393C5.45696 9.61365 4.58347 9.61365 4.04076 9.10108C3.49805 8.58852 3.49805 7.76356 3.49805 6.11365C3.49805 4.46373 3.49805 3.63877 4.04076 3.12621C4.58347 2.61365 5.45696 2.61365 7.20393 2.61365H20.7922C22.5391 2.61365 23.4126 2.61365 23.9553 3.12621C24.498 3.63877 24.498 4.46373 24.498 6.11365C24.498 7.76356 24.498 8.58852 23.9553 9.10108C23.4126 9.61365 22.5391 9.61365 20.7922 9.61365H19.8314" stroke="white" stroke-width="1.75" stroke-linecap="round" stroke-linejoin="round"/>
<defs>
<linearGradient id="paint0_linear_1325_2526" x1="15.748" y1="6.11353" x2="15.748" y2="25.9467" gradientUnits="userSpaceOnUse">
<stop stop-color="#FF6CB1"/>
<stop offset="1" stop-color="#FF0078"/>
</linearGradient>
</defs>
</svg>
