<svg width="151" height="121" viewBox="0 0 151 121" fill="none" xmlns="http://www.w3.org/2000/svg">
<path d="M72.8321 35.8909L73.2324 36.4261L73.6328 35.8909C78.5928 29.2611 86.5473 24.9414 95.4324 24.9414C110.504 24.9414 122.732 37.2152 122.732 52.3914C122.732 58.287 121.791 63.7352 120.157 68.7875L120.156 68.7907C116.241 81.1775 108.246 91.091 99.7128 98.4247C91.1774 105.76 82.1328 110.49 76.1714 112.518L76.166 112.52C75.3862 112.795 74.3217 112.941 73.2324 112.941C72.1432 112.941 71.0787 112.795 70.2988 112.52L70.2935 112.518C64.332 110.49 55.2874 105.76 46.7521 98.4247C38.2189 91.091 30.2234 81.1775 26.3092 68.7907L26.3081 68.7875C24.6736 63.7352 23.7324 58.287 23.7324 52.3914C23.7324 37.2152 35.9609 24.9414 51.0324 24.9414C59.9175 24.9414 67.872 29.2611 72.8321 35.8909Z" fill="url(#paint0_linear_564_4075)" stroke="url(#paint1_linear_564_4075)"/>
<path d="M12.7945 24.5833C11.4667 24.8655 10.4154 25.7637 9.88501 26.9116C8.93355 26.0787 7.60788 25.6857 6.28005 25.968C4.02786 26.4467 2.59101 28.669 3.07284 30.9358C3.2584 31.8088 3.56932 32.5862 3.97046 33.283C5.90923 36.7047 9.94816 38.1388 11.844 38.3645C12.1122 38.3996 12.523 38.3122 12.7537 38.1712C14.3938 37.1938 17.5003 34.2409 17.8797 30.3265C17.9628 29.5268 17.9306 28.6902 17.7451 27.8172C17.2632 25.5503 15.0467 24.1046 12.7945 24.5833Z" fill="#FF0078" fill-opacity="0.2"/>
<path d="M144.07 35.968C142.742 35.6858 141.416 36.0787 140.465 36.9116C139.935 35.7637 138.883 34.8655 137.555 34.5833C135.303 34.1046 133.087 35.5503 132.605 37.8172C132.419 38.6902 132.387 39.5268 132.47 40.3265C132.85 44.241 135.956 47.1939 137.596 48.1712C137.827 48.3123 138.238 48.3996 138.506 48.3646C140.402 48.1388 144.441 46.7047 146.379 43.283C146.781 42.5862 147.092 41.8089 147.277 40.9359C147.759 38.669 146.322 36.4467 144.07 35.968Z" fill="#FF0078" fill-opacity="0.1"/>
<path d="M39.2712 71.5462C38.386 71.7344 37.6852 72.3332 37.3315 73.0984C36.6972 72.5432 35.8135 72.2812 34.9282 72.4694C33.4268 72.7885 32.4689 74.27 32.7901 75.7813C32.9138 76.3633 33.1211 76.8815 33.3885 77.3461C34.681 79.6272 37.3736 80.5832 38.6376 80.7338C38.8163 80.7571 39.0902 80.6989 39.244 80.6048C40.3374 79.9533 42.4084 77.9847 42.6613 75.3751C42.7167 74.8419 42.6953 74.2842 42.5716 73.7022C42.2504 72.1909 40.7727 71.2271 39.2712 71.5462Z" fill="#FF0078" fill-opacity="0.2"/>
<path d="M76.2712 15.5462C75.386 15.7344 74.6852 16.3332 74.3315 17.0984C73.6972 16.5432 72.8135 16.2812 71.9282 16.4694C70.4268 16.7885 69.4689 18.27 69.7901 19.7813C69.9138 20.3633 70.1211 20.8815 70.3885 21.3461C71.681 23.6272 74.3736 24.5832 75.6376 24.7338C75.8163 24.7571 76.0902 24.6989 76.244 24.6048C77.3374 23.9533 79.4084 21.9847 79.6613 19.3751C79.7167 18.8419 79.6953 18.2842 79.5716 17.7022C79.2504 16.1909 77.7727 15.2271 76.2712 15.5462Z" fill="#FF0078" fill-opacity="0.2"/>
<defs>
<linearGradient id="paint0_linear_564_4075" x1="73.2324" y1="24.4414" x2="73.2324" y2="113.441" gradientUnits="userSpaceOnUse">
<stop stop-color="#FF0078" stop-opacity="0.1"/>
<stop offset="1" stop-color="#060606" stop-opacity="0"/>
</linearGradient>
<linearGradient id="paint1_linear_564_4075" x1="73.2324" y1="24.4414" x2="73.2324" y2="113.441" gradientUnits="userSpaceOnUse">
<stop stop-color="#FF0078" stop-opacity="0.1"/>
<stop offset="1" stop-color="#060606" stop-opacity="0"/>
</linearGradient>
</defs>
</svg>
