<svg width="72" height="73" viewBox="0 0 72 73" fill="none" xmlns="http://www.w3.org/2000/svg">
<path d="M0 36.9707C0 17.0885 16.1178 0.970703 36 0.970703C55.8823 0.970703 72 17.0885 72 36.9707C72 56.853 55.8823 72.9707 36 72.9707C16.1178 72.9707 0 56.853 0 36.9707Z" fill="url(#paint0_linear_589_3489)"/>
<path d="M10.5 36.9707C10.5 22.8874 21.9167 11.4707 36 11.4707C50.0833 11.4707 61.5 22.8874 61.5 36.9707C61.5 51.054 50.0833 62.4707 36 62.4707C21.9167 62.4707 10.5 51.054 10.5 36.9707Z" fill="url(#paint1_linear_589_3489)"/>
<path d="M10.5 36.9707C10.5 22.8874 21.9167 11.4707 36 11.4707C50.0833 11.4707 61.5 22.8874 61.5 36.9707C61.5 51.054 50.0833 62.4707 36 62.4707C21.9167 62.4707 10.5 51.054 10.5 36.9707Z" stroke="url(#paint2_linear_589_3489)"/>
<g opacity="0.3">
<path d="M33.4015 44.2328L33.2123 44.9585L33.4015 44.2328ZM32.0416 42.5842L31.3269 42.8116L32.0416 42.5842ZM32.3722 43.4555L31.7308 43.8442L32.3722 43.4555ZM39.9567 42.5842L40.6714 42.8116L39.9567 42.5842ZM39.6262 43.4555L40.2676 43.8442L39.6262 43.4555ZM38.5968 44.2328L38.786 44.9585L38.5968 44.2328ZM39.7435 41.6378L40.0256 40.9429L39.7435 41.6378ZM40.0702 42.1127L40.8194 42.0784L40.0702 42.1127ZM32.2548 41.6378L31.9727 40.9429L32.2548 41.6378ZM31.9281 42.1127L31.1789 42.0784L31.9281 42.1127ZM39.3071 44.4269C39.3851 44.0201 39.1185 43.6271 38.7117 43.5492C38.3049 43.4712 37.9119 43.7378 37.8339 44.1446L39.3071 44.4269ZM38.4597 44.8643L37.7231 44.7232V44.7232L38.4597 44.8643ZM33.5385 44.8643L34.2751 44.7232V44.7232L33.5385 44.8643ZM34.1643 44.1446C34.0863 43.7378 33.6934 43.4712 33.2866 43.5492C32.8797 43.6271 32.6131 44.0201 32.6911 44.4269L34.1643 44.1446ZM34.8106 46.88L34.5665 47.5892L34.8106 46.88ZM33.8561 46.0632L33.1971 46.4213L33.8561 46.0632ZM38.1421 46.0632L38.8011 46.4213L38.8011 46.4213L38.1421 46.0632ZM37.1876 46.88L37.4317 47.5892L37.1876 46.88ZM32.7177 42.3516H39.2807V40.8516H32.7177V42.3516ZM37.7033 43.5358H34.295V45.0358H37.7033V43.5358ZM34.295 43.5358C33.7923 43.5358 33.6784 43.5299 33.5908 43.5071L33.2123 44.9585C33.5311 45.0416 33.8774 45.0358 34.295 45.0358V43.5358ZM31.3269 42.8116C31.4603 43.2308 31.561 43.5641 31.7308 43.8442L33.0136 43.0668C32.9588 42.9765 32.914 42.8523 32.7563 42.3568L31.3269 42.8116ZM33.5908 43.5071C33.3604 43.447 33.1511 43.2937 33.0136 43.0668L31.7308 43.8442C32.0635 44.3932 32.5913 44.7966 33.2123 44.9585L33.5908 43.5071ZM39.242 42.3568C39.0843 42.8523 39.0395 42.9765 38.9848 43.0668L40.2676 43.8442C40.4373 43.5641 40.538 43.2308 40.6714 42.8116L39.242 42.3568ZM37.7033 45.0358C38.1209 45.0358 38.4673 45.0416 38.786 44.9585L38.4075 43.5071C38.3199 43.5299 38.206 43.5358 37.7033 43.5358V45.0358ZM38.9848 43.0668C38.8473 43.2937 38.6379 43.447 38.4075 43.5071L38.786 44.9585C39.407 44.7966 39.9348 44.3932 40.2676 43.8442L38.9848 43.0668ZM39.2807 42.3516C39.3442 42.3516 39.3939 42.3516 39.4367 42.3521C39.4795 42.3526 39.5071 42.3535 39.5258 42.3547C39.569 42.3573 39.5279 42.3597 39.4614 42.3328L40.0256 40.9429C39.8698 40.8797 39.7218 40.8639 39.6182 40.8575C39.5162 40.8512 39.3957 40.8516 39.2807 40.8516V42.3516ZM40.6714 42.8116C40.7081 42.6962 40.7455 42.5796 40.7711 42.4798C40.7971 42.3787 40.8268 42.2385 40.8194 42.0784L39.321 42.147C39.3183 42.0872 39.3306 42.0589 39.3183 42.1066C39.3129 42.1278 39.3045 42.1572 39.2912 42.2006C39.2779 42.2439 39.262 42.2938 39.242 42.3568L40.6714 42.8116ZM39.4614 42.3328C39.3651 42.2936 39.324 42.2121 39.321 42.147L40.8194 42.0784C40.7971 41.5892 40.4999 41.1354 40.0256 40.9429L39.4614 42.3328ZM32.7177 40.8516C32.6027 40.8516 32.4821 40.8512 32.3801 40.8575C32.2765 40.8639 32.1285 40.8797 31.9727 40.9429L32.5369 42.3328C32.4704 42.3597 32.4293 42.3573 32.4726 42.3547C32.4912 42.3535 32.5188 42.3526 32.5617 42.3521C32.6044 42.3516 32.6541 42.3516 32.7177 42.3516V40.8516ZM32.7563 42.3568C32.7363 42.2938 32.7204 42.2439 32.7071 42.2006C32.6939 42.1572 32.6855 42.1278 32.68 42.1066C32.6678 42.0589 32.68 42.0872 32.6773 42.147L31.1789 42.0784C31.1716 42.2385 31.2012 42.3787 31.2272 42.4798C31.2528 42.5796 31.2902 42.6962 31.3269 42.8116L32.7563 42.3568ZM31.9727 40.9429C31.4984 41.1354 31.2013 41.5892 31.1789 42.0784L32.6773 42.147C32.6743 42.2121 32.6333 42.2936 32.5369 42.3328L31.9727 40.9429ZM37.8339 44.1446L37.7231 44.7232L39.1963 45.0054L39.3071 44.4269L37.8339 44.1446ZM34.2751 44.7232L34.1643 44.1446L32.6911 44.4269L32.8019 45.0054L34.2751 44.7232ZM35.9991 46.22C35.3233 46.22 35.1684 46.21 35.0547 46.1708L34.5665 47.5892C34.9757 47.73 35.4388 47.72 35.9991 47.72V46.22ZM32.8019 45.0054C32.9129 45.5846 32.9919 46.0436 33.1971 46.4213L34.5152 45.7052C34.4488 45.5829 34.4066 45.4093 34.2751 44.7232L32.8019 45.0054ZM35.0547 46.1708C34.8333 46.0947 34.6385 45.9321 34.5152 45.7052L33.1971 46.4213C33.4938 46.9673 33.9793 47.3871 34.5665 47.5892L35.0547 46.1708ZM37.7231 44.7232C37.5916 45.4093 37.5495 45.5829 37.4831 45.7052L38.8011 46.4213C39.0063 46.0436 39.0853 45.5846 39.1963 45.0054L37.7231 44.7232ZM35.9991 47.72C36.5594 47.72 37.0226 47.73 37.4317 47.5892L36.9436 46.1708C36.8298 46.21 36.6749 46.22 35.9991 46.22V47.72ZM37.4831 45.7052C37.3598 45.9321 37.1649 46.0947 36.9436 46.1708L37.4317 47.5892C38.0189 47.3871 38.5044 46.9673 38.8011 46.4213L37.4831 45.7052Z" fill="#FF0078"/>
<path d="M30.0894 39.9707C29.711 39.1201 29.5 38.1738 29.5 37.1766C29.5 33.473 32.4101 30.4707 36 30.4707C39.5899 30.4707 42.5 33.473 42.5 37.1766C42.5 38.1738 42.289 39.1201 41.9106 39.9707" stroke="#FF0078" stroke-width="1.5" stroke-linecap="round"/>
<path d="M36 26.9707V27.9707" stroke="#FF0078" stroke-width="1.5" stroke-linecap="round" stroke-linejoin="round"/>
<path d="M46 36.9707L45 36.9707" stroke="#FF0078" stroke-width="1.5" stroke-linecap="round" stroke-linejoin="round"/>
<path d="M27 36.9707L26 36.9707" stroke="#FF0078" stroke-width="1.5" stroke-linecap="round" stroke-linejoin="round"/>
<path d="M43.0703 29.8994L42.3632 30.6065" stroke="#FF0078" stroke-width="1.5" stroke-linecap="round" stroke-linejoin="round"/>
<path d="M29.6367 30.6074L28.9296 29.9003" stroke="#FF0078" stroke-width="1.5" stroke-linecap="round" stroke-linejoin="round"/>
</g>
<defs>
<linearGradient id="paint0_linear_589_3489" x1="36" y1="0.970703" x2="36" y2="72.9707" gradientUnits="userSpaceOnUse">
<stop stop-color="#FF0078" stop-opacity="0.1"/>
<stop offset="1" stop-color="#060606" stop-opacity="0"/>
</linearGradient>
<linearGradient id="paint1_linear_589_3489" x1="36" y1="10.9707" x2="36" y2="62.9707" gradientUnits="userSpaceOnUse">
<stop stop-color="#FF0078" stop-opacity="0.1"/>
<stop offset="1" stop-color="#060606" stop-opacity="0"/>
</linearGradient>
<linearGradient id="paint2_linear_589_3489" x1="36" y1="10.9707" x2="36" y2="62.9707" gradientUnits="userSpaceOnUse">
<stop stop-color="#FF0078" stop-opacity="0.1"/>
<stop offset="1" stop-color="#060606" stop-opacity="0"/>
</linearGradient>
</defs>
</svg>
