<svg width="28" height="29" viewBox="0 0 28 29" fill="none" xmlns="http://www.w3.org/2000/svg">
<g clip-path="url(#clip0_1325_2520)">
<path d="M12.8706 15.6145C12.4589 15.6145 12.0965 15.5596 11.7836 15.4498C11.4706 15.3345 11.2263 15.1698 11.0506 14.9557C10.8749 14.7361 10.7871 14.4698 10.7871 14.1569C10.7871 13.8549 10.8749 13.5941 11.0506 13.3745C11.2318 13.1494 11.5173 12.9737 11.9071 12.8475C12.3024 12.7212 12.8158 12.658 13.4471 12.658H14.8224C15.3714 12.658 15.8573 12.7239 16.28 12.8557C16.7028 12.9875 17.0349 13.2043 17.2765 13.5063C17.5236 13.8027 17.6471 14.2063 17.6471 14.7169C17.6471 15.0902 17.5675 15.4059 17.4083 15.6639C17.2546 15.9275 17.0322 16.1553 16.7412 16.3475C16.5601 16.4682 16.3405 16.5698 16.0824 16.6522C15.8299 16.74 15.5306 16.8032 15.1848 16.8416C14.8443 16.8855 14.4491 16.9075 13.9989 16.9075H13.3565C13.0216 16.9075 12.7828 16.9212 12.6401 16.9486C12.5028 16.9816 12.3902 17.0282 12.3024 17.0886C12.2146 17.1545 12.1459 17.2369 12.0965 17.3357C12.0471 17.44 12.0224 17.58 12.0224 17.7557C12.0224 17.8161 12.0252 17.8737 12.0306 17.9286C12.0361 17.9835 12.0416 18.0412 12.0471 18.1016L10.8448 18.1592C10.8283 18.0439 10.8146 17.9286 10.8036 17.8133C10.7981 17.7035 10.7953 17.5827 10.7953 17.451C10.7953 17.2039 10.8448 16.987 10.9436 16.8004C11.0424 16.6192 11.1742 16.471 11.3389 16.3557C11.4487 16.2788 11.5722 16.2157 11.7095 16.1663C11.8467 16.1169 12.0169 16.0812 12.2201 16.0592C12.4232 16.0373 12.6758 16.0263 12.9777 16.0263H13.7189C14.1965 16.0263 14.5891 16.007 14.8965 15.9686C15.204 15.9357 15.451 15.8808 15.6377 15.8039C15.8299 15.727 15.9863 15.6255 16.1071 15.4992C16.2169 15.3894 16.2993 15.2632 16.3542 15.1204C16.4091 14.9722 16.4365 14.8047 16.4365 14.618C16.4365 14.3765 16.3843 14.1816 16.28 14.0333C16.1812 13.8851 16.0467 13.7726 15.8765 13.6957C15.7118 13.6133 15.5279 13.5584 15.3248 13.531C15.1271 13.5035 14.9295 13.4898 14.7318 13.4898H13.2906C13.0985 13.4898 12.9146 13.5008 12.7389 13.5227C12.5687 13.5392 12.4232 13.5776 12.3024 13.638C12.1981 13.6929 12.1212 13.7616 12.0718 13.8439C12.0224 13.9263 11.9977 14.0223 11.9977 14.1322C11.9977 14.3353 12.0828 14.4863 12.253 14.5851C12.4287 14.6839 12.662 14.7333 12.953 14.7333C13.1671 14.7333 13.3483 14.7004 13.4965 14.6345C13.6502 14.5686 13.7683 14.4506 13.8506 14.2804C13.933 14.1047 13.9742 13.8632 13.9742 13.5557V11.7686H12.7306V13.0286L11.6271 13.1604V10.8875H16.7248V11.7686H15.1683V13.5392C15.1683 13.9235 15.1299 14.2282 15.053 14.4533C14.9816 14.6729 14.8773 14.8596 14.7401 15.0133C14.5424 15.2329 14.2844 15.3894 13.9659 15.4827C13.6475 15.5706 13.2824 15.6145 12.8706 15.6145Z" fill="url(#paint0_linear_1325_2520)"/>
<path d="M9.17795 7.95261C8.94642 7.64873 9.00369 7.21209 9.32512 7.00555C10.7168 6.11132 12.3406 5.63231 14.0045 5.6333C15.6683 5.63429 17.2915 6.11515 18.6821 7.01098C19.0033 7.2179 19.0601 7.65461 18.8282 7.95825C18.5963 8.26184 18.1637 8.31686 17.8394 8.11488C16.6923 7.40039 15.3642 7.01761 14.0036 7.01683C12.6431 7.01605 11.3145 7.39726 10.1666 8.1104C9.84205 8.312 9.40949 8.25649 9.17795 7.95261Z" fill="url(#paint1_linear_1325_2520)"/>
<path d="M9.17795 20.608C8.94642 20.9119 9.00369 21.3485 9.32512 21.5551C10.7168 22.4493 12.3406 22.9283 14.0045 22.9273C15.6683 22.9263 17.2915 22.4455 18.6821 21.5496C19.0033 21.3427 19.0601 20.906 18.8282 20.6024C18.5963 20.2988 18.1637 20.2438 17.8394 20.4457C16.6923 21.1602 15.3642 21.543 14.0036 21.5438C12.6431 21.5446 11.3145 21.1634 10.1666 20.4502C9.84205 20.2486 9.40949 20.3041 9.17795 20.608Z" fill="url(#paint2_linear_1325_2520)"/>
<path d="M28 14.2803C28 22.0123 21.732 28.2803 14 28.2803C6.26801 28.2803 0 22.0123 0 14.2803C0 6.54828 6.26801 0.280273 14 0.280273C21.732 0.280273 28 6.54828 28 14.2803ZM1.4 14.2803C1.4 21.2391 7.04122 26.8803 14 26.8803C20.9588 26.8803 26.6 21.2391 26.6 14.2803C26.6 7.32149 20.9588 1.68027 14 1.68027C7.04122 1.68027 1.4 7.32149 1.4 14.2803Z" fill="white"/>
</g>
<defs>
<linearGradient id="paint0_linear_1325_2520" x1="14.2171" y1="10.8875" x2="14.2171" y2="18.1592" gradientUnits="userSpaceOnUse">
<stop stop-color="#FF6CB1"/>
<stop offset="1" stop-color="#FF0078"/>
</linearGradient>
<linearGradient id="paint1_linear_1325_2520" x1="14.0033" y1="5.6333" x2="14.0033" y2="8.23445" gradientUnits="userSpaceOnUse">
<stop stop-color="#FF6CB1"/>
<stop offset="1" stop-color="#FF0078"/>
</linearGradient>
<linearGradient id="paint2_linear_1325_2520" x1="14.0033" y1="20.3262" x2="14.0033" y2="22.9273" gradientUnits="userSpaceOnUse">
<stop stop-color="#FF6CB1"/>
<stop offset="1" stop-color="#FF0078"/>
</linearGradient>
<clipPath id="clip0_1325_2520">
<rect width="28" height="28" fill="white" transform="translate(0 0.280273)"/>
</clipPath>
</defs>
</svg>
