<svg width="16" height="16" viewBox="0 0 16 16" fill="none" xmlns="http://www.w3.org/2000/svg">
<path d="M8.00033 9.33317C8.73671 9.33317 9.33366 8.73622 9.33366 7.99984C9.33366 7.26346 8.73671 6.6665 8.00033 6.6665C7.26395 6.6665 6.66699 7.26346 6.66699 7.99984C6.66699 8.73622 7.26395 9.33317 8.00033 9.33317Z" stroke="#D4D4D4" stroke-linecap="round" stroke-linejoin="round"/>
<path d="M5 5.3335C4.33333 6.00016 4 7.00016 4 8.00016C4 9.00016 4.33333 10.0002 5 10.6668" stroke="#D4D4D4" stroke-linecap="round" stroke-linejoin="round"/>
<path d="M2.99967 4C1.99967 5 1.33301 6.33333 1.33301 8C1.33301 9.66667 1.99967 11 2.99967 12" stroke="#D4D4D4" stroke-linecap="round" stroke-linejoin="round"/>
<path d="M11 10.6668C11.6667 10.0002 12 9.00016 12 8.00016C12 7.00016 11.6667 6.00016 11 5.3335" stroke="#D4D4D4" stroke-linecap="round" stroke-linejoin="round"/>
<path d="M13 12C14 11 14.6667 9.66667 14.6667 8C14.6667 6.33333 14 5 13 4" stroke="#D4D4D4" stroke-linecap="round" stroke-linejoin="round"/>
</svg>
