<svg width="48" height="48" viewBox="0 0 48 48" fill="none" xmlns="http://www.w3.org/2000/svg">
<g clip-path="url(#clip0_834_15434)">
<path d="M4.99275 28.2136L4.99273 28.2136C3.77416 29.0634 2.66471 30.3764 2.66471 31.8572C2.66471 32.684 3.01959 33.37 3.56816 33.8734C4.07779 34.3409 4.72888 34.6323 5.3691 34.8261L4.99275 28.2136ZM4.99275 28.2136C6.28938 27.3093 8.05315 26.6667 9.99805 26.6667C10.1949 26.6667 10.39 26.6732 10.5829 26.686M4.99275 28.2136L10.5829 26.686M10.5829 26.686C8.80171 28.4913 7.33138 30.8988 7.33138 33.7142C7.33138 34.2359 7.38363 34.7386 7.48239 35.22M10.5829 26.686L7.48239 35.22M7.48239 35.22C6.71046 35.1408 5.99282 35.0148 5.36921 34.8261L7.48239 35.22ZM32.8696 38.3759L32.8695 38.3759C30.5039 39.092 27.3429 39.3333 23.998 39.3333C20.6532 39.3333 17.4923 39.092 15.1266 38.3759L15.1265 38.3759C13.9433 38.0179 12.8529 37.5105 12.0397 36.7644C11.1877 35.9826 10.6647 34.9557 10.6647 33.7142C10.6647 31.4045 12.4467 29.1271 14.7501 27.5208C17.1325 25.8595 20.3963 24.6667 23.998 24.6667C27.5998 24.6667 30.8635 25.8595 33.2459 27.5208C35.5494 29.1271 37.3314 31.4045 37.3314 33.7142C37.3314 34.9557 36.8084 35.9826 35.9564 36.7644L36.407 37.2556L35.9563 36.7644C35.1431 37.5105 34.0527 38.0179 32.8696 38.3759ZM43.0033 28.2136L43.0033 28.2136C44.222 29.0634 45.3314 30.3764 45.3314 31.8572C45.3314 32.684 44.9765 33.37 44.428 33.8733C43.9183 34.3409 43.267 34.6323 42.6269 34.8261C42.0032 35.0148 41.2856 35.1408 40.5137 35.22C40.6125 34.7386 40.6647 34.2359 40.6647 33.7142C40.6647 30.8988 39.1944 28.4913 37.4132 26.686C37.6061 26.6732 37.8012 26.6667 37.998 26.6667C39.943 26.6667 41.7067 27.3093 43.0033 28.2136ZM36.998 14.6667C39.3913 14.6667 41.3314 16.6068 41.3314 19C41.3314 21.3932 39.3913 23.3333 36.998 23.3333C34.6048 23.3333 32.6647 21.3932 32.6647 19C32.6647 16.6068 34.6048 14.6667 36.998 14.6667ZM10.998 14.6667C13.3913 14.6667 15.3314 16.6068 15.3314 19C15.3314 21.3932 13.3913 23.3333 10.998 23.3333C8.60482 23.3333 6.66471 21.3932 6.66471 19C6.66471 16.6068 8.60482 14.6667 10.998 14.6667ZM23.998 6.66667C28.0481 6.66667 31.3314 9.94991 31.3314 14C31.3314 18.0501 28.0481 21.3333 23.998 21.3333C19.948 21.3333 16.6647 18.0501 16.6647 14C16.6647 9.94991 19.948 6.66667 23.998 6.66667Z" stroke="#262626" stroke-width="1.33333"/>
</g>
<defs>
<clipPath id="clip0_834_15434">
<rect width="48" height="48" fill="white"/>
</clipPath>
</defs>
</svg>
