<svg width="16" height="16" viewBox="0 0 16 16" fill="none" xmlns="http://www.w3.org/2000/svg">
<path d="M7.66667 14.6668C4.99537 14.6668 3.65973 14.6668 2.82986 13.6905C2 12.7142 2 11.1429 2 8.00016C2 4.85747 2 3.28612 2.82986 2.30981C3.65973 1.3335 4.99537 1.3335 7.66667 1.3335C10.338 1.3335 11.6736 1.3335 12.5035 2.30981C13.1715 3.09571 13.3018 4.26719 13.3272 6.3335" stroke="#D4D4D4" stroke-linecap="round" stroke-linejoin="round"/>
<path d="M5.33398 5.3335H10.0007M5.33398 8.66683H7.33398" stroke="#D4D4D4" stroke-linecap="round" stroke-linejoin="round"/>
<path d="M13.0735 12.0707C13.6354 11.6617 14.0007 10.9987 14.0007 10.2505C14.0007 9.00785 12.9933 8.00049 11.7507 8.00049H11.584C10.3413 8.00049 9.33398 9.00785 9.33398 10.2505C9.33398 10.9987 9.69923 11.6617 10.2612 12.0707M13.0735 12.0707C12.7022 12.341 12.245 12.5005 11.7507 12.5005H11.584C11.0896 12.5005 10.6324 12.341 10.2612 12.0707M13.0735 12.0707L13.462 13.2941C13.6102 13.7607 13.6843 13.994 13.664 14.1393C13.6219 14.4416 13.3753 14.6661 13.0841 14.6672C12.9442 14.6677 12.7346 14.5577 12.3155 14.3377C12.1358 14.2434 12.0459 14.1962 11.954 14.1685C11.7667 14.112 11.568 14.112 11.3807 14.1685C11.2887 14.1962 11.1989 14.2434 11.0191 14.3377C10.6 14.5577 10.3904 14.6677 10.2505 14.6672C9.95936 14.6661 9.71278 14.4416 9.67061 14.1393C9.65034 13.994 9.72443 13.7607 9.87262 13.2941L10.2612 12.0707" stroke="#D4D4D4"/>
</svg>
